<?xml version="1.0" encoding="UTF-8" standalone="no"?>
<svg
   xmlns:dc="http://purl.org/dc/elements/1.1/"
   xmlns:cc="http://creativecommons.org/ns#"
   xmlns:rdf="http://www.w3.org/1999/02/22-rdf-syntax-ns#"
   xmlns:svg="http://www.w3.org/2000/svg"
   xmlns="http://www.w3.org/2000/svg"
   xmlns:xlink="http://www.w3.org/1999/xlink"
   xmlns:sodipodi="http://sodipodi.sourceforge.net/DTD/sodipodi-0.dtd"
   xmlns:inkscape="http://www.inkscape.org/namespaces/inkscape"
   version="1.1"
   x="0"
   y="0"
   width="486.70316"
   height="995.65332"
   viewBox="0 0 486.70316 995.65332"
   id="svg54515"
   inkscape:version="0.91 r13725"
   sodipodi:docname="rockstardude.svg">
  <metadata
     id="metadata54854">
    <rdf:RDF>
      <cc:Work
         rdf:about="">
        <dc:format>image/svg+xml</dc:format>
        <dc:type
           rdf:resource="http://purl.org/dc/dcmitype/StillImage" />
        <dc:title></dc:title>
        <dc:description>remix by j4p4n</dc:description>
        <cc:license
           rdf:resource="http://creativecommons.org/publicdomain/zero/1.0/" />
      </cc:Work>
      <cc:License
         rdf:about="http://creativecommons.org/publicdomain/zero/1.0/">
        <cc:permits
           rdf:resource="http://creativecommons.org/ns#Reproduction" />
        <cc:permits
           rdf:resource="http://creativecommons.org/ns#Distribution" />
        <cc:permits
           rdf:resource="http://creativecommons.org/ns#DerivativeWorks" />
      </cc:License>
    </rdf:RDF>
  </metadata>
  <defs
     id="defs54852">
    <linearGradient
       id="linearGradient7560">
      <stop
         offset="0"
         style="stop-color:#ffffff"
         id="stop7562" />
      <stop
         offset="1"
         style="stop-color:#ffffff;stop-opacity:0"
         id="stop7564" />
    </linearGradient>
    <linearGradient
       id="linearGradient4242">
      <stop
         offset="0"
         style="stop-color:#fe00ff"
         id="stop4244" />
      <stop
         offset="1"
         style="stop-color:#00fbff"
         id="stop4246" />
    </linearGradient>
    <filter
       height="1.2717"
       x="-0.066228002"
       width="1.1325001"
       y="-0.13583"
       id="filter3259">
      <feGaussianBlur
         inkscape:collect="always"
         stdDeviation="0.45842252"
         id="feGaussianBlur3261" />
    </filter>
    <mask
       id="mask3265">
      <path
         d="m 48.219,109.69 c -0.272,0 -0.5,0.34 -0.5,0.78 l 0,2 c 0,-0.44 0.228,-0.78 0.5,-0.78 l 2.593,0 c 0.272,0 0.5,0.34 0.5,0.78 l 0,-2 c 0,-0.44 -0.228,-0.78 -0.5,-0.78 l -2.593,0 z m 3.093,4.28 0,2 9.469,0 c 0.438,0 0.781,0.2 0.781,0.47 l 0,-2 c 0,-0.27 -0.343,-0.47 -0.781,-0.47 l -9.469,0 z"
         style="opacity:0.73000004;fill:#eeeeec;filter:url(#filter3259)"
         id="path3267"
         inkscape:connector-curvature="0" />
    </mask>
    <linearGradient
       x1="54.640999"
       y1="109.69"
       x2="54.640999"
       gradientUnits="userSpaceOnUse"
       xlink:href="#linearGradient4242"
       y2="115.75"
       id="linearGradient4396" />
    <linearGradient
       x1="174.75999"
       y1="795.28003"
       x2="175.00999"
       gradientUnits="userSpaceOnUse"
       spreadMethod="reflect"
       xlink:href="#linearGradient7560"
       y2="784.16998"
       id="linearGradient7566" />
    <linearGradient
       x1="137.95"
       y1="147.53999"
       x2="137.95"
       gradientUnits="userSpaceOnUse"
       xlink:href="#linearGradient7560"
       y2="155.75"
       id="linearGradient8562" />
    <linearGradient
       x1="170.39999"
       y1="1045.5"
       x2="170.39999"
       gradientUnits="userSpaceOnUse"
       y2="615.28998"
       id="linearGradient3328">
      <stop
         offset="0"
         style="stop-color:#fce94f"
         id="stop3324" />
      <stop
         offset="1"
         style="stop-color:#fce94f;stop-opacity:0"
         id="stop3326" />
    </linearGradient>
  </defs>
  <sodipodi:namedview
     pagecolor="#ffffff"
     bordercolor="#666666"
     borderopacity="1"
     objecttolerance="10"
     gridtolerance="10"
     guidetolerance="10"
     inkscape:pageopacity="0"
     inkscape:pageshadow="2"
     inkscape:window-width="1916"
     inkscape:window-height="1035"
     id="namedview54850"
     showgrid="false"
     fit-margin-top="0"
     fit-margin-left="0"
     fit-margin-right="0"
     fit-margin-bottom="0"
     inkscape:zoom="0.48229806"
     inkscape:cx="155.9195"
     inkscape:cy="539.22162"
     inkscape:window-x="4"
     inkscape:window-y="1"
     inkscape:window-maximized="1"
     inkscape:current-layer="svg54515" />
  <g
     id="g56963">
    <g
       transform="translate(-0.0204978,6.5884547e-5)"
       id="g56768">
      <path
         style="fill:#8d6846"
         inkscape:connector-curvature="0"
         id="path54518"
         d="m 292.58,968.703 38.273,-9.354 -12.758,-24.667 -30.619,0.852 z" />
      <path
         style="fill-opacity:0;stroke:#1a1919;stroke-width:7.37900019;stroke-linecap:round;stroke-linejoin:round"
         inkscape:connector-curvature="0"
         id="path54520"
         d="m 292.58,968.703 38.273,-9.354 -12.758,-24.667 -30.619,0.852 5.104,33.169 z" />
      <path
         d="m 295.982,968.703 c -0.851,-11.906 1.702,-26.362 1.301,-39.775 -8.028,-5.496 -30.692,-2.683 -36.181,5.278 -2.541,10.685 -0.839,21.739 1.711,30.245 11.95,5.059 23.775,4.721 33.169,4.252"
         id="path54524"
         inkscape:connector-curvature="0"
         style="fill:#c38d5f" />
      <path
         d="m 295.982,968.703 c -0.851,-11.906 1.702,-26.362 1.301,-39.775 -8.028,-5.496 -30.692,-2.683 -36.181,5.278 -2.541,10.685 -0.839,21.739 1.711,30.245 11.95,5.059 23.775,4.721 33.169,4.252 z"
         id="path54526"
         inkscape:connector-curvature="0"
         style="fill-opacity:0;stroke:#1a1919;stroke-width:7.37900019;stroke-linecap:round;stroke-linejoin:round" />
      <path
         d="m 267.066,940.637 c 7.549,6.051 31.378,7.521 39.124,14.46 27.213,24.38 46.799,29.642 61.233,33.451 23.627,6.235 44.534,5.569 52.732,-16.44 10.774,-28.92 -11.906,-32.322 -34.871,-37.425 -8.096,-1.798 -18.993,-7.372 -31.467,-15.308 -11.833,-7.531 -34.506,-34.782 -49.675,-38.779 -16.143,-4.255 -37.614,0.408 -43.879,14.787 -6.521,14.965 -9.654,32.061 6.803,45.254"
         id="path54528"
         inkscape:connector-curvature="0"
         style="fill:#c38d5f" />
      <path
         d="m 267.066,940.637 c 7.549,6.051 31.378,7.521 39.124,14.46 27.213,24.38 46.799,29.642 61.233,33.451 23.627,6.235 44.534,5.569 52.732,-16.44 10.774,-28.92 -11.906,-32.322 -34.871,-37.425 -8.096,-1.798 -18.993,-7.372 -31.467,-15.308 -11.833,-7.531 -34.506,-34.782 -49.675,-38.779 -16.143,-4.255 -37.614,0.408 -43.879,14.787 -6.521,14.965 -9.654,32.061 6.803,45.254 z"
         id="path54530"
         inkscape:connector-curvature="0"
         style="fill-opacity:0;stroke:#1a1919;stroke-width:7.37900019;stroke-linecap:round;stroke-linejoin:round" />
      <g
         id="g54532">
        <path
           d="m 334.539,938.654 c 11.209,-9.169 24.945,-14.745 44.224,-15.878 27.381,-1.605 43.094,12.477 44.227,36.289"
           id="path54534"
           inkscape:connector-curvature="0"
           style="fill:#c38d5f" />
        <path
           d="m 334.539,938.654 c 11.209,-9.169 24.945,-14.745 44.224,-15.878 27.381,-1.605 43.094,12.477 44.227,36.289"
           id="path54536"
           style="fill-opacity:0;stroke:#1a1919;stroke-width:7.37900019;stroke-linecap:round;stroke-linejoin:round;stroke-miterlimit:4;stroke-dasharray:none"
           inkscape:connector-curvature="0" />
      </g>
      <path
         d="m 159.051,957.648 -6.803,10.208 -29.767,-7.657 5.954,-22.962 z"
         id="path54538"
         inkscape:connector-curvature="0"
         style="fill:#8d6846" />
      <path
         d="m 159.051,957.648 -6.803,10.208 -29.767,-7.657 5.954,-22.962 30.616,20.411 z"
         id="path54540"
         inkscape:connector-curvature="0"
         style="fill-opacity:0;stroke:#1a1919;stroke-width:7.37900019;stroke-linecap:round;stroke-linejoin:round" />
      <path
         d="m 147.995,934.683 c 10.053,-16.179 19.143,-26.29 28.917,-11.907 3.259,4.794 3.401,19.136 4.252,30.62 -4.252,7.653 -20.411,14.46 -29.768,14.46 0.852,-11.059 0,-19.565 -3.401,-33.173"
         id="path54542"
         inkscape:connector-curvature="0"
         style="fill:#c38d5f" />
      <path
         d="m 147.995,934.683 c 10.053,-16.179 19.143,-26.29 28.917,-11.907 3.259,4.794 3.401,19.136 4.252,30.62 -4.252,7.653 -20.411,14.46 -29.768,14.46 0.852,-11.059 0,-19.565 -3.401,-33.173 z"
         id="path54544"
         inkscape:connector-curvature="0"
         style="fill-opacity:0;stroke:#1a1919;stroke-width:7.37900019;stroke-linecap:round;stroke-linejoin:round" />
      <path
         d="m 176.912,934.683 c -5.648,8.02 -25.421,14.505 -34.02,20.414 -13.609,9.353 -17.495,19.288 -30.619,26.364 -13.852,7.473 -35.671,7.539 -51.021,3.869 -15.251,-3.645 -25.524,-7.148 -25.524,-23.43 0,-18.712 26.312,-19.171 40.399,-25.851 26.524,-12.58 30.432,-57.506 68.505,-49.033 17.601,3.918 45.898,28.332 32.28,47.667"
         id="path54546"
         inkscape:connector-curvature="0"
         style="fill:#c38d5f" />
      <path
         d="m 176.912,934.683 c -5.648,8.02 -25.421,14.505 -34.02,20.414 -13.609,9.353 -17.495,19.288 -30.619,26.364 -13.852,7.473 -35.671,7.539 -51.021,3.869 -15.251,-3.645 -25.524,-7.148 -25.524,-23.43 0,-18.712 26.312,-19.171 40.399,-25.851 26.524,-12.58 30.432,-57.506 68.505,-49.033 17.601,3.918 45.898,28.332 32.28,47.667 z"
         id="path54548"
         inkscape:connector-curvature="0"
         style="fill-opacity:0;stroke:#1a1919;stroke-width:7.37900019;stroke-linecap:round;stroke-linejoin:round" />
      <g
         id="g54550">
        <path
           d="M 112.273,946.593 C 90.726,911.437 32.95,919.514 35.165,962.467"
           id="path54552"
           inkscape:connector-curvature="0"
           style="fill:#c38d5f" />
        <path
           d="M 112.273,946.593 C 90.726,911.437 32.95,919.514 35.165,962.467"
           id="path54554"
           inkscape:connector-curvature="0"
           style="fill-opacity:0;stroke:#1a1919;stroke-width:7.37900019;stroke-linecap:round;stroke-linejoin:round" />
      </g>
      <path
         d="m 302.788,759.483 c -6.642,-18.324 -11.384,-48.147 -18.713,-76.545 -7.331,-28.42 -21.723,-76.197 -25.515,-105.465 -3.09,-23.888 2.202,-32.296 -16.108,-50.605 -19.728,-19.725 -47.486,-21.02 -75.932,-19.175 -18.733,1.216 -34.171,5.321 -48.811,17.443 -8.379,6.936 -20.816,16.495 -27.593,24.529 -8.234,9.757 -6.351,13.392 -6.2,28.548 0.232,24.143 -3.802,48.265 -2.638,72.405 2.209,45.814 6.303,78.746 12.286,124.173 1.48,11.232 9.121,48.985 10.204,85.049 -11.666,33.052 -9.217,49.072 -10.204,59.535 38.744,-17.389 48.91,-28.232 85.05,1.703 8.47,-20.329 3.401,-45.987 3.401,-68.04 0,-31.176 -11.767,-69.809 -15.307,-100.362 -3.273,-28.191 -17.748,-112.994 1.699,-134.377 8.505,22.114 30.533,63.079 34.02,76.545 7.638,29.483 17.01,103.759 37.377,122.133 3.19,14.35 3.296,51.043 8.549,64.977 10.337,27.414 -1.699,15.308 8.505,44.224 16.269,-1.353 28.581,-0.842 39.124,-10.205 15.918,-14.123 18.712,-18.711 52.732,0 6.803,-24.663 -7.369,-51.039 -11.906,-61.236 -5.171,-11.615 -8.344,-40.105 -11.91,-52.729 -5.35,-18.927 -16.421,-26.832 -22.11,-42.525"
         id="path54556"
         inkscape:connector-curvature="0"
         style="fill:#a8cde2" />
      <path
         d="m 302.788,759.483 c -6.642,-18.324 -11.384,-48.147 -18.713,-76.545 -7.331,-28.42 -21.723,-76.197 -25.515,-105.465 -3.09,-23.888 2.202,-32.296 -16.108,-50.605 -19.728,-19.725 -47.486,-21.02 -75.932,-19.175 -18.733,1.216 -34.171,5.321 -48.811,17.443 -8.379,6.936 -20.816,16.495 -27.593,24.529 -8.234,9.757 -6.351,13.392 -6.2,28.548 0.232,24.143 -3.802,48.265 -2.638,72.405 2.209,45.814 6.303,78.746 12.286,124.173 1.48,11.232 9.121,48.985 10.204,85.049 -11.666,33.052 -9.217,49.072 -10.204,59.535 38.744,-17.389 48.91,-28.232 85.05,1.703 8.47,-20.329 3.401,-45.987 3.401,-68.04 0,-31.176 -11.767,-69.809 -15.307,-100.362 -3.273,-28.191 -17.748,-112.994 1.699,-134.377 8.505,22.114 30.533,63.079 34.02,76.545 7.638,29.483 17.01,103.759 37.377,122.133 3.19,14.35 3.296,51.043 8.549,64.977 10.337,27.414 -1.699,15.308 8.505,44.224 16.269,-1.353 28.581,-0.842 39.124,-10.205 15.918,-14.123 18.712,-18.711 52.732,0 6.803,-24.663 -7.369,-51.039 -11.906,-61.236 -5.171,-11.615 -8.344,-40.105 -11.91,-52.729 -5.35,-18.927 -16.421,-26.832 -22.11,-42.525 z"
         id="path54558"
         inkscape:connector-curvature="0"
         style="fill-opacity:0;stroke:#1a1919;stroke-width:7.37900019;stroke-linecap:round;stroke-linejoin:round" />
      <path
         d="m 83.357,537.502 c 2.493,-12.307 -1.639,-63.264 -1.699,-70.594 -0.19,-22.813 0.149,-90.667 -3.405,-116.802 -5.986,-44.06 -16.516,-46.846 10.208,-78.813 27.824,-33.28 85.328,-42.737 125.037,-29.129 28.872,9.894 24.196,48.794 32.587,79.592 3.752,13.773 15.877,36.197 15.877,51.597 0,48.075 0.592,40.291 -3.401,88.454 -1.677,20.247 13.364,53.54 11.055,80.798 -18.545,8.331 -41.006,-2.554 -60.383,-2.554 -28.423,0 -97.552,-1.448 -125.876,-2.549"
         id="path54560"
         inkscape:connector-curvature="0"
         style="fill:#799f80" />
      <path
         d="m 83.357,537.502 c 2.493,-12.307 -1.639,-63.264 -1.699,-70.594 -0.19,-22.813 0.149,-90.667 -3.405,-116.802 -5.986,-44.06 -16.516,-46.846 10.208,-78.813 27.824,-33.28 85.328,-42.737 125.037,-29.129 28.872,9.894 24.196,48.794 32.587,79.592 3.752,13.773 15.877,36.197 15.877,51.597 0,48.075 0.592,40.291 -3.401,88.454 -1.677,20.247 13.364,53.54 11.055,80.798 -18.545,8.331 -41.006,-2.554 -60.383,-2.554 -28.423,0 -97.552,-1.448 -125.876,-2.549 z"
         id="path54562"
         inkscape:connector-curvature="0"
         style="fill-opacity:0;stroke:#1a1919;stroke-width:7.34700012;stroke-linecap:round;stroke-linejoin:round" />
      <path
         d="m 82.793,524.745 161.308,3.401 -4.254,23.811 -154.788,1.703 z"
         id="path54564"
         inkscape:connector-curvature="0"
         style="fill:#ce986c" />
      <path
         d="m 82.793,524.745 161.308,3.401 -4.254,23.811 -154.788,1.703 -2.266,-28.915 z"
         id="path54566"
         inkscape:connector-curvature="0"
         style="fill-opacity:0;stroke:#1a1919;stroke-width:7.34700012;stroke-linecap:round;stroke-linejoin:round" />
      <path
         d="m 170.109,549.125 c -9.948,0.326 -15.935,-0.109 -15.662,-9.925 0.259,-9.27 8.454,-10.147 16.01,-9.78 6.413,0.313 10.783,2.826 10.991,10.064 0.26,9.043 -4.407,9.415 -11.339,9.641 m -0.852,-31.187 c -11.779,0.449 -26.485,-1.123 -27.217,20.591 -0.848,25.338 15.13,22.576 30.626,21.934 10.808,-0.447 23.547,-3.129 23.809,-21.037 0.281,-19.22 -14.216,-21.979 -27.218,-21.488"
         id="path54568"
         inkscape:connector-curvature="0"
         style="fill:#b2b3b2" />
      <path
         d="m 170.109,549.125 c -9.948,0.326 -15.935,-0.109 -15.662,-9.925 0.259,-9.27 8.454,-10.147 16.01,-9.78 6.413,0.313 10.783,2.826 10.991,10.064 0.26,9.043 -4.407,9.415 -11.339,9.641 z m -0.852,-31.187 c -11.779,0.449 -26.485,-1.123 -27.217,20.591 -0.848,25.338 15.13,22.576 30.626,21.934 10.808,-0.447 23.547,-3.129 23.809,-21.037 0.281,-19.22 -14.216,-21.979 -27.218,-21.488 z"
         id="path54570"
         inkscape:connector-curvature="0"
         style="fill-opacity:0;stroke:#1a1919;stroke-width:7.15899992;stroke-linecap:round;stroke-linejoin:round" />
      <path
         d="m 142.468,539.201 c -0.851,-8.505 16.583,-10.632 16.583,-0.849 0,9.782 -15.731,9.354 -16.583,0.849"
         id="path54572"
         inkscape:connector-curvature="0"
         style="fill:#b2b3b2" />
      <path
         d="m 142.468,539.201 c -0.851,-8.505 16.583,-10.632 16.583,-0.849 0,9.782 -15.731,9.354 -16.583,0.849 z"
         id="path54574"
         inkscape:connector-curvature="0"
         style="fill-opacity:0;stroke:#1a1919;stroke-width:7.15899992;stroke-linecap:round;stroke-linejoin:round" />
      <path
         d="m 192.222,233.872 c -4.448,-20.867 -3.376,-39.738 -20.534,-53.875 -11.48,-9.457 -29.407,-11.814 -35.448,9.031 -5.112,17.658 4.62,37.279 -6.916,53.811 -27.256,10.878 -35.59,22.502 -22.718,47.166 13.608,26.082 78.139,52.157 112.263,7.939 13.613,-17.639 34.587,-50.464 -26.647,-64.072"
         id="path54576"
         inkscape:connector-curvature="0"
         style="fill:#f2b5a0" />
      <path
         d="m 192.222,233.872 c -4.448,-20.867 -3.376,-39.738 -20.534,-53.875 -11.48,-9.457 -29.407,-11.814 -35.448,9.031 -5.112,17.658 4.62,37.279 -6.916,53.811 -27.256,10.878 -35.59,22.502 -22.718,47.166 13.608,26.082 78.139,52.157 112.263,7.939 13.613,-17.639 34.587,-50.464 -26.647,-64.072 z"
         id="path54578"
         inkscape:connector-curvature="0"
         style="fill-opacity:0;stroke:#1a1919;stroke-width:7.37900019;stroke-linecap:round;stroke-linejoin:round" />
      <path
         d="m 100.933,816.182 c 16.228,4.038 24.629,7.408 32.891,21.545 -3.43,2.613 -12.957,5.565 -17.011,6.806"
         id="path54580"
         inkscape:connector-curvature="0"
         style="fill-opacity:0;stroke:#1a1919;stroke-width:7.37900019;stroke-linecap:round;stroke-linejoin:round" />
      <path
         d="m 178.045,820.717 c -4.648,22.965 -37.359,22.461 -35.153,48.761 2.148,0.37 25.003,-6.104 27.217,-6.236"
         id="path54582"
         inkscape:connector-curvature="0"
         style="fill-opacity:0;stroke:#1a1919;stroke-width:7.37900019;stroke-linecap:round;stroke-linejoin:round" />
      <path
         d="m 239.847,817.315 c 12.996,5.658 55.596,46.123 18.713,45.928"
         id="path54584"
         inkscape:connector-curvature="0"
         style="fill-opacity:0;stroke:#1a1919;stroke-width:7.37900019;stroke-linecap:round;stroke-linejoin:round" />
      <path
         d="m 335.105,856.44 c -18.206,0 -22.749,6.059 -35.722,20.41 8.752,7.61 23.977,4.848 33.171,11.056"
         id="path54586"
         inkscape:connector-curvature="0"
         style="fill-opacity:0;stroke:#1a1919;stroke-width:7.37900019;stroke-linecap:round;stroke-linejoin:round" />
      <path
         d="m 272.169,760.616 c 6.803,22.68 19.833,33.285 35.152,44.224"
         id="path54588"
         inkscape:connector-curvature="0"
         style="fill-opacity:0;stroke:#1a1919;stroke-width:7.37900019;stroke-linecap:round;stroke-linejoin:round" />
      <path
         d="m 110.574,554.793 2.266,-29.482 11.343,-0.567 1.136,30.049 z"
         id="path54590"
         inkscape:connector-curvature="0"
         style="fill:#a8cde2" />
      <path
         d="m 110.574,554.793 2.266,-29.482 11.343,-0.567 1.136,30.049 -14.745,0 z"
         id="path54592"
         inkscape:connector-curvature="0"
         style="fill-opacity:0;stroke:#1a1919;stroke-width:7.37900019;stroke-linecap:round;stroke-linejoin:round" />
      <path
         d="m 217.738,558.764 -5.673,-34.02 13.045,-2.269 4.533,36.289 z"
         id="path54594"
         inkscape:connector-curvature="0"
         style="fill:#a8cde2" />
      <path
         d="m 217.738,558.764 -5.673,-34.02 13.045,-2.269 4.533,36.289 -11.905,0 z"
         id="path54596"
         inkscape:connector-curvature="0"
         style="fill-opacity:0;stroke:#1a1919;stroke-width:7.37900019;stroke-linecap:round;stroke-linejoin:round" />
      <path
         d="m 124.183,446.497 c -9.071,43.095 -24.952,125.306 -39.691,130.976 -32.851,1.994 7.635,-3.9 -25.515,-3.968 -4.635,-18.083 -0.217,-19.089 4.807,-35.715 3.604,-11.922 -9.989,-31.081 -9.343,-43.665 1.097,-21.496 2.094,-34.402 1.135,-55.567 -0.968,-21.297 10.208,-46.834 10.208,-68.6 0,-38.411 -46.506,8.265 -46.499,-39.13 0,-5.68 4.977,-18.282 14.744,-30.615 11.98,-15.134 27.215,-22.68 56.696,-34.02 18.773,2.603 34.783,62.012 47.063,73.14 -0.636,13.35 -7.929,39.75 -13.605,107.164"
         id="path54598"
         inkscape:connector-curvature="0"
         style="fill:#fffffe" />
      <path
         d="m 147.432,300.213 c 7.932,9.21 14.583,9.957 23.81,4.534 9.004,-5.293 43.09,-28.347 39.689,-61.234 14.739,31.751 -37.646,117.519 -53.384,119.003 -3.24,-22.679 -47.524,-72.362 -37.333,-96.892 9.069,13.608 21.687,28.172 27.218,34.589"
         id="path54600"
         inkscape:connector-curvature="0"
         style="fill:#e05b55" />
      <path
         d="m 147.432,300.213 c 7.932,9.21 14.583,9.957 23.81,4.534 9.004,-5.293 43.09,-28.347 39.689,-61.234 14.739,31.751 -37.646,117.519 -53.384,119.003 -3.24,-22.679 -47.524,-72.362 -37.333,-96.892 9.069,13.608 21.687,28.172 27.218,34.589 z"
         id="path54602"
         inkscape:connector-curvature="0"
         style="fill-opacity:0;stroke:#1a1919;stroke-width:7.37900019;stroke-linecap:round;stroke-linejoin:round" />
      <path
         d="m 201.861,574.641 c 3.562,5.334 18.879,12.847 24.948,13.605"
         id="path54610"
         inkscape:connector-curvature="0"
         style="fill-opacity:0;stroke:#1a1919;stroke-width:7.37900019;stroke-linecap:round;stroke-linejoin:round" />
      <path
         d="m 63.316,279.086 c 19.402,7.062 44.55,48.6 70.47,63.99"
         id="path54612"
         inkscape:connector-curvature="0"
         style="fill-opacity:0;stroke:#dd4043;stroke-width:7.37900019;stroke-linecap:round;stroke-linejoin:round" />
      <path
         d="m 43.875,292.046 c 16.2,2.43 22.68,29.161 39.69,45.36 10.656,10.151 38.07,21.87 48.6,25.11"
         id="path54614"
         inkscape:connector-curvature="0"
         style="fill-opacity:0;stroke:#dd4043;stroke-width:7.37900019;stroke-linecap:round;stroke-linejoin:round" />
      <path
         d="m 70.605,342.266 c 18.798,15.812 29.651,32.239 59.13,35.64"
         id="path54616"
         inkscape:connector-curvature="0"
         style="fill-opacity:0;stroke:#dd4043;stroke-width:7.37900019;stroke-linecap:round;stroke-linejoin:round" />
      <path
         d="m 68.175,375.476 c 16.726,11.925 36.45,25.11 59.941,30.78"
         id="path54618"
         inkscape:connector-curvature="0"
         style="fill-opacity:0;stroke:#dd4043;stroke-width:7.37900019;stroke-linecap:round;stroke-linejoin:round" />
      <path
         d="m 64.125,386.006 c 17.298,17.919 38.88,29.16 59.94,37.26"
         id="path54620"
         inkscape:connector-curvature="0"
         style="fill-opacity:0;stroke:#dd4043;stroke-width:7.37900019;stroke-linecap:round;stroke-linejoin:round" />
      <path
         d="m 58.977,410.211 c 14.739,20.411 37.425,31.748 60.102,38.554"
         id="path54622"
         inkscape:connector-curvature="0"
         style="fill-opacity:0;stroke:#dd4043;stroke-width:7.37900019;stroke-linecap:round;stroke-linejoin:round" />
      <path
         d="m 57.645,426.506 c 14.738,20.411 36.453,31.264 59.13,38.07"
         id="path54624"
         inkscape:connector-curvature="0"
         style="fill-opacity:0;stroke:#dd4043;stroke-width:7.37900019;stroke-linecap:round;stroke-linejoin:round" />
      <path
         d="m 51.975,449.186 c 9.071,20.414 34.017,33.048 56.7,42.121"
         id="path54626"
         inkscape:connector-curvature="0"
         style="fill-opacity:0;stroke:#dd4043;stroke-width:7.37900019;stroke-linecap:round;stroke-linejoin:round" />
      <path
         d="m 48.736,472.676 c 16.725,11.925 30.46,29.809 59.939,33.211"
         id="path54628"
         inkscape:connector-curvature="0"
         style="fill-opacity:0;stroke:#dd4043;stroke-width:7.37900019;stroke-linecap:round;stroke-linejoin:round" />
      <path
         d="m 52.175,494.125 c 16.726,11.922 18.143,30.619 47.629,34.021"
         id="path54630"
         inkscape:connector-curvature="0"
         style="fill-opacity:0;stroke:#dd4043;stroke-width:7.37900019;stroke-linecap:round;stroke-linejoin:round" />
      <path
         d="m 64.647,536.08 c 14.745,6.807 18.146,17.014 29.479,18.147"
         id="path54632"
         inkscape:connector-curvature="0"
         style="fill-opacity:0;stroke:#dd4043;stroke-width:7.37900019;stroke-linecap:round;stroke-linejoin:round" />
      <path
         d="m 123.616,322.889 c 4.531,30.619 -35.156,251.749 -49.9,254.017"
         id="path54634"
         inkscape:connector-curvature="0"
         style="fill-opacity:0;stroke:#dd4043;stroke-width:7.37900019;stroke-linecap:round;stroke-linejoin:round" />
      <path
         d="m 113.535,293.666 c 10.499,39.623 -31.751,237.818 -45.36,272.971"
         id="path54636"
         inkscape:connector-curvature="0"
         style="fill-opacity:0;stroke:#dd4043;stroke-width:7.37900019;stroke-linecap:round;stroke-linejoin:round" />
      <path
         d="M 98.667,274.131 C 96.525,303.386 58.455,460.526 61.243,516.805"
         id="path54638"
         inkscape:connector-curvature="0"
         style="fill-opacity:0;stroke:#dd4043;stroke-width:7.37900019;stroke-linecap:round;stroke-linejoin:round" />
      <path
         d="m 106.767,282.231 c 1.908,29.255 -37.782,188.015 -37.424,242.673"
         id="path54640"
         inkscape:connector-curvature="0"
         style="fill-opacity:0;stroke:#dd4043;stroke-width:7.37900019;stroke-linecap:round;stroke-linejoin:round" />
      <path
         d="M 87.616,274.226 C 72.225,324.446 63.312,394.593 57.645,429.746"
         id="path54642"
         inkscape:connector-curvature="0"
         style="fill-opacity:0;stroke:#dd4043;stroke-width:7.37900019;stroke-linecap:round;stroke-linejoin:round" />
      <path
         d="m 124.183,446.497 c -9.071,43.095 -24.952,125.306 -39.691,130.976 -32.851,1.994 7.635,-3.9 -25.515,-3.968 -4.635,-18.083 -0.217,-19.089 4.807,-35.715 3.604,-11.922 -9.989,-31.081 -9.343,-43.665 1.097,-21.496 2.094,-34.402 1.135,-55.567 -0.968,-21.297 10.208,-46.834 10.208,-68.6 0,-38.411 -46.506,8.265 -46.499,-39.13 0,-5.68 4.977,-18.282 14.744,-30.615 11.98,-15.134 27.215,-22.68 56.696,-34.02 18.773,2.603 32.23,60.313 44.513,71.441 1.702,23.813 -0.851,56.981 -11.055,108.863 z"
         id="path54644"
         inkscape:connector-curvature="0"
         style="fill-opacity:0;stroke:#1a1919;stroke-width:7.37900019;stroke-linecap:round;stroke-linejoin:round" />
      <path
         d="m 138.354,341.036 c 0,-18.712 -26.578,-65.708 -16.437,-78.529 9.292,-11.758 15.871,-16.729 19.275,-20.13 -5.673,-6.803 -1.986,-6.805 -6.518,-14.741 -15.311,1.699 -36.095,16.418 -41.677,33.169 -6.803,20.411 -12.514,49.733 -5.1,68.04 9.267,-20.69 33.447,-4.82 50.457,12.191"
         id="path54646"
         inkscape:connector-curvature="0"
         style="fill:#fffffe" />
      <path
         d="m 85.186,308.246 c 12.346,-9.878 34.02,-7.29 42.12,4.05"
         id="path54648"
         inkscape:connector-curvature="0"
         style="fill-opacity:0;stroke:#dd4043;stroke-width:7.37900019;stroke-linecap:round;stroke-linejoin:round" />
      <path
         d="m 90.045,269.366 c 12.35,-9.878 20.326,-6.682 29.971,3.241"
         id="path54650"
         inkscape:connector-curvature="0"
         style="fill-opacity:0;stroke:#dd4043;stroke-width:7.37900019;stroke-linecap:round;stroke-linejoin:round" />
      <path
         d="m 85.186,296.096 c 12.349,-9.878 28.425,-10.732 38.07,-0.81"
         id="path54652"
         inkscape:connector-curvature="0"
         style="fill-opacity:0;stroke:#dd4043;stroke-width:7.37900019;stroke-linecap:round;stroke-linejoin:round" />
      <path
         d="m 97.336,249.116 c 9.356,-0.851 21.06,2.43 28.35,11.341"
         id="path54654"
         inkscape:connector-curvature="0"
         style="fill-opacity:0;stroke:#dd4043;stroke-width:7.37900019;stroke-linecap:round;stroke-linejoin:round" />
      <path
         d="m 98.955,318.776 c 0,-12.018 -1.778,-34.099 4.05,-50.22 4.224,-11.689 17.418,-34.102 31.59,-38.069"
         id="path54656"
         inkscape:connector-curvature="0"
         style="fill-opacity:0;stroke:#dd4043;stroke-width:7.37900019;stroke-linecap:round;stroke-linejoin:round" />
      <path
         d="m 131.355,247.496 c -26.73,14.58 -19.439,61.044 -19.439,73.71"
         id="path54658"
         inkscape:connector-curvature="0"
         style="fill-opacity:0;stroke:#dd4043;stroke-width:7.37900019;stroke-linecap:round;stroke-linejoin:round" />
      <path
         d="m 136.089,338.767 c 0,-18.709 -19.051,-53.761 -13.609,-69.173 5.104,-14.459 11.343,-18.145 18.146,-26.081 -1.699,-7.939 -1.136,-12.476 -5.673,-20.412 -15.311,1.699 -36.374,20.952 -41.956,37.704 -6.803,20.41 -12.513,49.733 -5.1,68.039 9.267,-20.689 31.182,-7.087 48.192,9.923 z"
         id="path54660"
         inkscape:connector-curvature="0"
         style="fill-opacity:0;stroke:#1a1919;stroke-width:7.37900019;stroke-linecap:round;stroke-linejoin:round" />
      <path
         d="M 23.821,308.151 C 11.352,336.501 4.66,395.207 2.277,424.952 0.411,448.275 1.145,462.371 9.08,483.918 17.746,507.44 40.268,593.348 52.175,600.152 54.441,575.774 77.721,573.008 96.966,557.627 75.421,513.401 71.45,490.723 63.514,461.241 58.977,431.758 59.579,390.565 65.784,354.644"
         id="path54672"
         inkscape:connector-curvature="0"
         style="fill:#fffffe" />
      <path
         d="m 30.105,531.807 c 13.09,-11.9 34.831,-15.391 50.22,-17.012"
         id="path54680"
         inkscape:connector-curvature="0"
         style="fill-opacity:0;stroke:#dd4043;stroke-width:7.37900019;stroke-linecap:round;stroke-linejoin:round" />
      <path
         d="m 16.336,499.407 c 11.343,-5.668 39.009,-17.561 55.08,-13.77"
         id="path54682"
         inkscape:connector-curvature="0"
         style="fill-opacity:0;stroke:#dd4043;stroke-width:7.37900019;stroke-linecap:round;stroke-linejoin:round" />
      <path
         d="m 21.195,513.176 c 11.343,-5.667 37.391,-19.99 53.461,-16.2"
         id="path54684"
         inkscape:connector-curvature="0"
         style="fill-opacity:0;stroke:#dd4043;stroke-width:7.37900019;stroke-linecap:round;stroke-linejoin:round" />
      <path
         d="m 10.666,478.346 c 21.117,-12.668 42.929,-9.72 54.27,-8.1"
         id="path54686"
         inkscape:connector-curvature="0"
         style="fill-opacity:0;stroke:#dd4043;stroke-width:7.37900019;stroke-linecap:round;stroke-linejoin:round" />
      <path
         d="m 5.806,462.146 c 21.117,-12.668 49.409,-8.1 58.32,-3.24"
         id="path54688"
         inkscape:connector-curvature="0"
         style="fill-opacity:0;stroke:#dd4043;stroke-width:7.37900019;stroke-linecap:round;stroke-linejoin:round" />
      <path
         d="m 6.616,438.656 c 12.472,-9.068 44.837,-6.217 54.27,2.43"
         id="path54690"
         inkscape:connector-curvature="0"
         style="fill-opacity:0;stroke:#dd4043;stroke-width:7.37900019;stroke-linecap:round;stroke-linejoin:round" />
      <path
         d="m 7.425,420.026 c 12.48,-4.537 40.5,-0.81 51.841,4.86"
         id="path54692"
         inkscape:connector-curvature="0"
         style="fill-opacity:0;stroke:#dd4043;stroke-width:7.37900019;stroke-linecap:round;stroke-linejoin:round" />
      <path
         d="m 9.045,393.296 c 13.033,-2.527 38.071,6.48 50.221,14.581"
         id="path54694"
         inkscape:connector-curvature="0"
         style="fill-opacity:0;stroke:#dd4043;stroke-width:7.37900019;stroke-linecap:round;stroke-linejoin:round" />
      <path
         d="m 9.045,375.476 c 17.01,0 38.071,12.15 52.65,18.63"
         id="path54696"
         inkscape:connector-curvature="0"
         style="fill-opacity:0;stroke:#dd4043;stroke-width:7.37900019;stroke-linecap:round;stroke-linejoin:round" />
      <path
         d="m 13.906,351.176 c 17.01,0 36.45,15.39 48.6,24.3"
         id="path54698"
         inkscape:connector-curvature="0"
         style="fill-opacity:0;stroke:#dd4043;stroke-width:7.37900019;stroke-linecap:round;stroke-linejoin:round" />
      <path
         d="m 17.145,335.787 c 13.235,-1.083 37.26,12.959 48.6,28.35"
         id="path54700"
         inkscape:connector-curvature="0"
         style="fill-opacity:0;stroke:#dd4043;stroke-width:7.37900019;stroke-linecap:round;stroke-linejoin:round" />
      <path
         d="m 26.866,310.676 c 28.574,-2.335 19.313,5.781 47.79,36.45"
         id="path54702"
         inkscape:connector-curvature="0"
         style="fill-opacity:0;stroke:#dd4043;stroke-width:7.37900019;stroke-linecap:round;stroke-linejoin:round" />
      <path
         d="m 212.08,436.289 c 9.068,43.095 24.945,125.307 39.687,130.977 32.849,1.993 -7.639,-3.903 25.515,-3.968 4.638,-18.079 0.217,-19.089 -4.81,-35.716 -3.604,-11.926 9.989,-31.081 9.347,-43.668 -1.095,-21.493 -2.095,-34.395 -1.136,-55.56 0.969,-21.301 -10.208,-46.835 -10.208,-68.6 0,-38.412 45.08,16.766 45.07,-30.626 0,-5.679 -7.246,-22.534 -17.01,-34.87 -11.983,-15.134 -23.519,-26.933 -53.005,-38.273 -18.766,2.607 -41.597,55.776 -53.878,66.904 0.637,13.349 14.745,45.986 20.428,113.4"
         id="path54714"
         inkscape:connector-curvature="0"
         style="fill:#fffffe" />
      <path
         d="m 259.336,263.696 c -17.01,18.63 -37.31,32.378 -54.27,42.93"
         id="path54716"
         inkscape:connector-curvature="0"
         style="fill-opacity:0;stroke:#dd4043;stroke-width:7.37900019;stroke-linecap:round;stroke-linejoin:round" />
      <path
         d="m 267.436,270.987 c -6.12,9.663 -14.697,27.251 -26.73,35.64 -18.231,12.707 -35.6,18.774 -45.361,22.68"
         id="path54718"
         inkscape:connector-curvature="0"
         style="fill-opacity:0;stroke:#dd4043;stroke-width:7.37900019;stroke-linecap:round;stroke-linejoin:round" />
      <path
         d="m 283.635,280.707 c -12.149,12.15 -22.679,31.589 -34.83,45.358 -9.736,11.038 -29.97,25.922 -49.41,25.922"
         id="path54720"
         inkscape:connector-curvature="0"
         style="fill-opacity:0;stroke:#dd4043;stroke-width:7.37900019;stroke-linecap:round;stroke-linejoin:round" />
      <path
         d="m 263.385,332.546 c -15.39,19.441 -29.97,29.161 -58.319,33.21"
         id="path54722"
         inkscape:connector-curvature="0"
         style="fill-opacity:0;stroke:#dd4043;stroke-width:7.37900019;stroke-linecap:round;stroke-linejoin:round" />
      <path
         d="m 272.295,359.276 c -15.39,15.39 -40.5,30.78 -63.179,30.78"
         id="path54724"
         inkscape:connector-curvature="0"
         style="fill-opacity:0;stroke:#dd4043;stroke-width:7.37900019;stroke-linecap:round;stroke-linejoin:round" />
      <path
         d="m 278.775,435.416 c -13.77,15.391 -33.21,34.021 -57.509,30.78"
         id="path54726"
         inkscape:connector-curvature="0"
         style="fill-opacity:0;stroke:#dd4043;stroke-width:7.37900019;stroke-linecap:round;stroke-linejoin:round" />
      <path
         d="m 275.535,372.237 c -14.742,20.411 -39.69,29.97 -63.18,33.209"
         id="path54728"
         inkscape:connector-curvature="0"
         style="fill-opacity:0;stroke:#dd4043;stroke-width:7.37900019;stroke-linecap:round;stroke-linejoin:round" />
      <path
         d="m 278.775,408.687 c -14.741,20.411 -41.31,30.779 -63.18,34.83"
         id="path54730"
         inkscape:connector-curvature="0"
         style="fill-opacity:0;stroke:#dd4043;stroke-width:7.37900019;stroke-linecap:round;stroke-linejoin:round" />
      <path
         d="m 276.345,395.726 c -14.741,20.412 -40.5,29.161 -61.56,30.78"
         id="path54732"
         inkscape:connector-curvature="0"
         style="fill-opacity:0;stroke:#dd4043;stroke-width:7.37900019;stroke-linecap:round;stroke-linejoin:round" />
      <path
         d="m 283.635,445.137 c -9.07,20.414 -37.259,35.64 -59.939,36.45"
         id="path54734"
         inkscape:connector-curvature="0"
         style="fill-opacity:0;stroke:#dd4043;stroke-width:7.37900019;stroke-linecap:round;stroke-linejoin:round" />
      <path
         d="m 283.636,472.676 c -16.725,11.919 -24.788,29.809 -54.27,33.211"
         id="path54736"
         inkscape:connector-curvature="0"
         style="fill-opacity:0;stroke:#dd4043;stroke-width:7.37900019;stroke-linecap:round;stroke-linejoin:round" />
      <path
         d="m 281.241,488.455 c -16.727,11.926 -19.152,27.799 -48.635,31.201"
         id="path54738"
         inkscape:connector-curvature="0"
         style="fill-opacity:0;stroke:#dd4043;stroke-width:7.37900019;stroke-linecap:round;stroke-linejoin:round" />
      <path
         d="m 271.615,525.876 c -14.745,6.803 -18.149,17.011 -29.486,18.146"
         id="path54740"
         inkscape:connector-curvature="0"
         style="fill-opacity:0;stroke:#dd4043;stroke-width:7.37900019;stroke-linecap:round;stroke-linejoin:round" />
      <path
         d="m 201.016,309.866 c 7.29,20.25 12.232,54.896 20.25,98.821 4.837,26.502 9.03,57.762 14.579,82.62 9.739,43.613 20.833,74.492 26.696,75.393"
         id="path54742"
         inkscape:connector-curvature="0"
         style="fill-opacity:0;stroke:#dd4043;stroke-width:7.37900019;stroke-linecap:round;stroke-linejoin:round" />
      <path
         d="m 211.545,285.566 c -0.291,11.954 9.691,47.724 17.01,88.291 4.41,24.452 9.872,58.984 14.58,84.239 9.173,49.238 17.652,85.557 25.11,99.63"
         id="path54744"
         inkscape:connector-curvature="0"
         style="fill-opacity:0;stroke:#dd4043;stroke-width:7.37900019;stroke-linecap:round;stroke-linejoin:round" />
      <path
         d="m 237.595,263.924 c -0.057,13.7 8.869,52.112 16.88,96.163 9.856,54.193 19.289,116.487 20.541,146.514"
         id="path54746"
         inkscape:connector-curvature="0"
         style="fill-opacity:0;stroke:#dd4043;stroke-width:7.37900019;stroke-linecap:round;stroke-linejoin:round" />
      <path
         d="m 227.875,267.164 c -0.06,13.906 9.312,59.263 16.88,104.262 9.062,53.868 15.909,108.635 24.3,137.7"
         id="path54748"
         inkscape:connector-curvature="0"
         style="fill-opacity:0;stroke:#dd4043;stroke-width:7.37900019;stroke-linecap:round;stroke-linejoin:round" />
      <path
         d="m 250.625,262.788 c 18.143,40.826 18.143,153.093 23.813,188.243"
         id="path54750"
         inkscape:connector-curvature="0"
         style="fill-opacity:0;stroke:#dd4043;stroke-width:7.37900019;stroke-linecap:round;stroke-linejoin:round" />
      <path
         d="m 212.08,436.289 c 9.068,43.095 24.945,125.307 39.687,130.977 32.849,1.993 -7.639,-3.903 25.515,-3.968 4.638,-18.079 0.217,-19.089 -4.81,-35.716 -3.604,-11.926 9.989,-31.081 9.347,-43.668 -1.095,-21.493 -2.095,-34.395 -1.136,-55.56 0.969,-21.301 -10.208,-46.835 -10.208,-68.6 26.357,5.945 45.918,16.152 45.07,-29.774 -2.553,-10.208 -10.651,-28.49 -20.415,-40.826 -11.979,-15.134 -32.033,-25.231 -61.516,-36.571 -18.769,2.605 -29.681,59.178 -41.962,70.306 0.637,13.349 14.745,45.986 20.428,113.4 z"
         id="path54752"
         inkscape:connector-curvature="0"
         style="fill-opacity:0;stroke:#1a1919;stroke-width:7.37900019;stroke-linecap:round;stroke-linejoin:round" />
      <path
         d="m 189.388,325.162 c 0,-18.713 22.62,-69.113 12.482,-81.934 -9.299,-11.757 -16.159,-9.356 -19.564,-12.757 5.674,-6.803 2.272,-14.175 6.806,-22.114 15.308,1.702 36.093,16.422 41.674,33.169 6.803,20.414 12.511,49.733 5.104,68.04 -9.271,-20.69 -29.493,-1.414 -46.502,15.596"
         id="path54754"
         inkscape:connector-curvature="0"
         style="fill:#fffffe" />
      <path
         d="m 237.466,291.237 c -4.908,-3.924 -15.412,-7.18 -21.06,-4.86 -8.563,3.518 -13.928,7.492 -20.25,12.96"
         id="path54756"
         inkscape:connector-curvature="0"
         style="fill-opacity:0;stroke:#dd4043;stroke-width:7.37900019;stroke-linecap:round;stroke-linejoin:round" />
      <path
         d="m 238.275,276.656 c -4.907,-3.923 -10.53,-5.669 -19.439,-3.24 -8.929,2.436 -10.689,3.442 -17.011,8.91"
         id="path54758"
         inkscape:connector-curvature="0"
         style="fill-opacity:0;stroke:#dd4043;stroke-width:7.37900019;stroke-linecap:round;stroke-linejoin:round" />
      <path
         d="m 230.175,249.926 c -13.608,2.266 -17.82,4.86 -25.48,14.565"
         id="path54760"
         inkscape:connector-curvature="0"
         style="fill-opacity:0;stroke:#dd4043;stroke-width:7.37900019;stroke-linecap:round;stroke-linejoin:round" />
      <path
         d="m 230.175,236.966 c -13.608,2.266 -19.88,1.637 -27.54,11.341"
         id="path54762"
         inkscape:connector-curvature="0"
         style="fill-opacity:0;stroke:#dd4043;stroke-width:7.37900019;stroke-linecap:round;stroke-linejoin:round" />
      <path
         d="m 226.534,234.723 c -9.357,-0.851 -11.881,3.452 -23.813,8.505"
         id="path54764"
         inkscape:connector-curvature="0"
         style="fill-opacity:0;stroke:#dd4043;stroke-width:7.37900019;stroke-linecap:round;stroke-linejoin:round" />
      <path
         d="m 212.925,218.849 c -9.356,-0.852 -12.757,7.653 -19.56,13.323"
         id="path54766"
         inkscape:connector-curvature="0"
         style="fill-opacity:0;stroke:#dd4043;stroke-width:7.37900019;stroke-linecap:round;stroke-linejoin:round" />
      <path
         d="m 223.133,297.66 c 0,-14.665 -0.374,-32.265 -5.338,-46.009 -4.227,-11.691 -20.383,-24.572 -25.281,-35.639"
         id="path54768"
         inkscape:connector-curvature="0"
         style="fill-opacity:0;stroke:#dd4043;stroke-width:7.37900019;stroke-linecap:round;stroke-linejoin:round" />
      <path
         d="m 205.875,259.646 c 3.642,11.271 5.218,30.942 3.241,44.55"
         id="path54770"
         inkscape:connector-curvature="0"
         style="fill-opacity:0;stroke:#dd4043;stroke-width:7.37900019;stroke-linecap:round;stroke-linejoin:round" />
      <path
         d="m 190.52,324.025 c 0,-9.356 10.429,-35.624 12.758,-52.732 2.332,-17.107 -3.436,-25.056 -8.505,-31.466 -9.299,-11.758 -9.062,-5.955 -12.466,-9.356 5.673,-6.803 2.272,-14.175 6.805,-22.114 15.308,1.702 36.093,16.421 41.674,33.169 6.803,20.414 12.511,49.733 5.104,68.04 -9.27,-20.69 -28.36,-2.55 -45.37,14.459 z"
         id="path54772"
         inkscape:connector-curvature="0"
         style="fill-opacity:0;stroke:#1a1919;stroke-width:7.37900019;stroke-linecap:round;stroke-linejoin:round" />
      <path
         d="m 331.742,417.969 c 3.29,23.161 -2.896,53.95 -4,74 -1.377,25.028 -18.724,107.254 -30.19,114.774 -18.581,-20.765 -27.167,-25.52 -47.312,-39.696 18.787,-45.467 14.683,-70.222 20.796,-100.139 1.953,-21.313 2.446,-41.139 0,-62.37 -1.319,-11.448 3.003,-24.275 -0.671,-35.244 -2.733,-8.167 -4.653,-11.357 -5.001,-20.321 -0.35,-9.029 0.553,-19.164 5.672,-26.084 9.754,-13.178 21.961,-12.051 37.226,-11.137 18.842,32.495 18.265,69.549 23.48,106.217"
         id="path54774"
         inkscape:connector-curvature="0"
         style="fill:#fffffe" />
      <path
         d="m 313.605,552.057 c -15.39,-14.581 -29.406,-16.539 -49.41,-23.491"
         id="path54776"
         inkscape:connector-curvature="0"
         style="fill-opacity:0;stroke:#dd4043;stroke-width:7.37900019;stroke-linecap:round;stroke-linejoin:round" />
      <path
         d="m 318.466,535.856 c -7.894,-6.331 -31.59,-16.199 -53.46,-17.01"
         id="path54782"
         inkscape:connector-curvature="0"
         style="fill-opacity:0;stroke:#dd4043;stroke-width:7.37900019;stroke-linecap:round;stroke-linejoin:round" />
      <path
         d="m 323.326,508.316 c -11.666,-4.964 -33.913,-9.467 -55.89,-10.529"
         id="path54784"
         inkscape:connector-curvature="0"
         style="fill-opacity:0;stroke:#dd4043;stroke-width:7.37900019;stroke-linecap:round;stroke-linejoin:round" />
      <path
         d="m 325.756,492.926 c -11.735,-6.101 -31.59,-9.72 -55.89,-8.91"
         id="path54786"
         inkscape:connector-curvature="0"
         style="fill-opacity:0;stroke:#dd4043;stroke-width:7.37900019;stroke-linecap:round;stroke-linejoin:round" />
      <path
         d="m 327.375,467.816 c -12.96,-6.479 -37.228,-5.578 -54.27,-5.67"
         id="path54788"
         inkscape:connector-curvature="0"
         style="fill-opacity:0;stroke:#dd4043;stroke-width:7.37900019;stroke-linecap:round;stroke-linejoin:round" />
      <path
         d="m 328.995,450.807 c -13.77,-4.86 -32.4,-4.86 -55.079,-1.62"
         id="path54790"
         inkscape:connector-curvature="0"
         style="fill-opacity:0;stroke:#dd4043;stroke-width:7.37900019;stroke-linecap:round;stroke-linejoin:round" />
      <path
         d="m 329.806,422.457 c -12.729,-3.769 -29.97,1.62 -55.081,8.1"
         id="path54792"
         inkscape:connector-curvature="0"
         style="fill-opacity:0;stroke:#dd4043;stroke-width:7.37900019;stroke-linecap:round;stroke-linejoin:round" />
      <path
         d="m 326.566,407.066 c -13.166,-1.727 -40.5,4.05 -52.65,9.721"
         id="path54794"
         inkscape:connector-curvature="0"
         style="fill-opacity:0;stroke:#dd4043;stroke-width:7.37900019;stroke-linecap:round;stroke-linejoin:round" />
      <path
         d="m 324.945,385.196 c -11.83,-1.551 -29.16,-3.24 -51.84,12.15"
         id="path54796"
         inkscape:connector-curvature="0"
         style="fill-opacity:0;stroke:#dd4043;stroke-width:7.37900019;stroke-linecap:round;stroke-linejoin:round" />
      <path
         d="m 321.705,368.186 c -14.58,-2.429 -35.64,4.86 -51.03,16.201"
         id="path54798"
         inkscape:connector-curvature="0"
         style="fill-opacity:0;stroke:#dd4043;stroke-width:7.37900019;stroke-linecap:round;stroke-linejoin:round" />
      <path
         d="m 310.366,323.637 c -13.273,-0.273 -32.625,11.739 -42.93,24.3"
         id="path54800"
         inkscape:connector-curvature="0"
         style="fill-opacity:0;stroke:#dd4043;stroke-width:7.37900019;stroke-linecap:round;stroke-linejoin:round" />
      <path
         d="m 294.975,295.287 c -9.72,4.05 -25.109,20.25 -32.4,35.64"
         id="path54802"
         inkscape:connector-curvature="0"
         style="fill-opacity:0;stroke:#dd4043;stroke-width:7.37900019;stroke-linecap:round;stroke-linejoin:round" />
      <path
         d="m 314.416,341.457 c -13.273,-0.273 -34.533,9.21 -44.838,21.771"
         id="path54804"
         inkscape:connector-curvature="0"
         style="fill-opacity:0;stroke:#dd4043;stroke-width:7.37900019;stroke-linecap:round;stroke-linejoin:round" />
      <path
         d="m 276.345,271.796 c 12.708,21.943 24.632,101.659 26.73,120.691 2.26,20.525 3.139,58.844 0.81,79.379 -4.423,38.984 -9.719,85.051 -27.54,116.64"
         id="path54806"
         inkscape:connector-curvature="0"
         style="fill-opacity:0;stroke:#dd4043;stroke-width:7.37900019;stroke-linecap:round;stroke-linejoin:round" />
      <path
         d="m 261.766,266.936 c 12.706,21.943 18.961,98.418 21.06,117.451 2.259,20.524 2.414,67.764 0,88.289 -3.24,27.539 -8.91,69.66 -25.11,101.251"
         id="path54808"
         inkscape:connector-curvature="0"
         style="fill-opacity:0;stroke:#dd4043;stroke-width:7.37900019;stroke-linecap:round;stroke-linejoin:round" />
      <path
         d="m 290.116,284.756 c 12.704,21.939 23.009,81.408 25.109,100.44 3.649,33.147 3.747,62.085 2.431,73.71 -4.424,38.984 -11.502,109.35 -30.781,137.7"
         id="path54810"
         inkscape:connector-curvature="0"
         style="fill-opacity:0;stroke:#dd4043;stroke-width:7.37900019;stroke-linecap:round;stroke-linejoin:round" />
      <path
         d="m 303.076,587.696 c -15.391,-14.58 -32.648,-20.588 -52.651,-27.539"
         id="path54780"
         inkscape:connector-curvature="0"
         style="fill-opacity:0;stroke:#dd4043;stroke-width:7.37900019;stroke-linecap:round;stroke-linejoin:round" />
      <path
         d="m 307.936,571.496 c -15.391,-14.579 -30.217,-15.729 -50.22,-22.681"
         id="path54778"
         inkscape:connector-curvature="0"
         style="fill-opacity:0;stroke:#dd4043;stroke-width:7.37900019;stroke-linecap:round;stroke-linejoin:round" />
      <path
         d="m 250.625,260.522 c 21.313,5.072 40.105,21.602 52.163,39.69 18.143,27.214 24.999,93.524 27.214,121.336 1.857,23.326 -2.269,63.503 -4.535,83.917 -2.765,24.904 -18.015,93.403 -29.485,100.928 -15.877,-17.01 -27.727,-22.766 -47.869,-36.938 18.795,-45.471 15.671,-63.553 21.787,-93.472 2.722,-29.708 1.586,-110.813 -6.805,-146.288"
         id="path54812"
         inkscape:connector-curvature="0"
         style="fill-opacity:0;stroke:#1a1919;stroke-width:7.37900019;stroke-linecap:round;stroke-linejoin:round" />
      <path
         d="m 164.439,256.555 c 30.144,1.499 68.1,-32.391 71.441,-65.771 3.401,-34.02 10.325,-123.839 -62.937,-119.922 -75.671,4.047 -93.554,80.605 -76.545,124.456 12.246,31.574 37.894,59.737 68.041,61.237"
         id="path54814"
         inkscape:connector-curvature="0"
         style="fill:#f2b5a0" />
      <path
         d="m 164.439,256.555 c 30.144,1.499 68.1,-32.391 71.441,-65.771 3.401,-34.02 10.325,-123.839 -62.937,-119.922 -75.671,4.047 -93.554,80.605 -76.545,124.456 12.246,31.574 37.894,59.737 68.041,61.237 z"
         id="path54816"
         inkscape:connector-curvature="0"
         style="fill-opacity:0;stroke:#1a1919;stroke-width:7.37900019;stroke-linecap:round;stroke-linejoin:round" />
      <path
         d="m 117.946,139.753 c 5.667,-17.01 24.379,-15.592 34.583,-0.851"
         id="path54818"
         inkscape:connector-curvature="0"
         style="fill-opacity:0;stroke:#1a1919;stroke-width:7.34700012;stroke-linecap:round;stroke-linejoin:round" />
      <path
         d="m 180.313,136.349 c 2.072,-10.353 18.712,-18.142 26.651,-3.401"
         id="path54820"
         inkscape:connector-curvature="0"
         style="fill-opacity:0;stroke:#1a1919;stroke-width:7.34700012;stroke-linecap:round;stroke-linejoin:round" />
      <path
         d="m 138.358,149.958 c 11.343,-0.453 9.635,27.217 -1.215,26.337 -8.957,-0.727 -12.964,-25.771 1.215,-26.337"
         id="path54822"
         inkscape:connector-curvature="0"
         style="fill:#1a1919" />
      <path
         d="m 189.954,174.906 c -10.73,-1.338 -11.523,-25.081 0,-26.081 13.04,-1.133 9.071,27.214 0,26.081"
         id="path54824"
         inkscape:connector-curvature="0"
         style="fill:#1a1919" />
      <path
         d="m 161.035,199.855 c -6.239,-5.67 -8.506,-12.476 -5.668,-18.143 2.724,-5.455 11.337,-4.537 14.738,0"
         id="path54826"
         inkscape:connector-curvature="0"
         style="fill-opacity:0;stroke:#1a1919;stroke-width:7.34700012;stroke-linecap:round;stroke-linejoin:round" />
      <path
         d="m 164.439,221.399 c 5.704,8.511 29.482,2.269 24.945,-13.606"
         id="path54828"
         inkscape:connector-curvature="0"
         style="fill-opacity:0;stroke:#1a1919;stroke-width:7.34700012;stroke-linecap:round;stroke-linejoin:round" />
      <path
         d="m 188.251,110.834 c -5.104,-6.803 -3.48,-25.727 -5.647,-34.697 -4.632,8.435 -32.625,56.81 -45.383,64.465 3.402,-11.056 -0.879,-18.326 1,-28.35 -8.644,16.418 -11.577,34.506 -22.262,50.463 -6.916,10.334 -9.96,15.66 -19.561,21.263 -2.553,-2.55 -2.268,-5.37 -2.268,-10.992 -2.173,16.067 11.039,35.368 15.874,51.818 7.091,24.097 -7.939,71.441 -43.088,39.689 C 94.13,248.617 90.634,231.385 83.926,215.732 77.12,199.855 58.974,157.896 57.275,131.249 54.896,93.96 66.913,70.012 86.192,52.15 c 14.092,-13.055 54.431,-28.065 84.198,-8.505 0.411,-4.86 -6.803,-18.709 -12.757,-30.618 18.712,-1.699 25.654,22.338 27.179,26.644 1.101,-7.84 6.84,-18.987 11.094,-35.998 11.058,13.606 6.805,34.869 5.102,43.373 22.966,-21.262 40.425,-12.798 45.927,-11.054 -14.456,5.954 -22.293,15.598 -28.964,19.613 17.909,-2.604 55.415,0.076 61.285,21.209 -10.207,-1.699 -22.553,-5.527 -28.622,-4.933 11.546,13.194 22.114,17.877 28.274,36.299 7.151,21.366 4.601,42.629 -5.031,62.297 -10.916,22.284 -26.977,38.386 -33.808,60.281 -5.385,17.266 12.537,16.722 29.546,16.722 -11.055,30.619 -47.922,22.826 -50.745,-6.799 -1.48,-15.485 3.078,-37.988 9.132,-51.764 -3.165,5.049 -7.433,21.427 -9.132,35.036 -13.608,-19.564 -12.992,-81.877 -13.608,-91.006 -0.991,-14.563 1.828,-32.317 0.85,-46.777 -6.919,2.832 -13.89,13.419 -17.861,24.664"
         id="path54830"
         inkscape:connector-curvature="0"
         style="fill:#f4bd80" />
      <path
         d="m 188.251,110.834 c -5.104,-6.803 -3.48,-25.727 -5.647,-34.697 -4.632,8.435 -32.625,56.81 -45.383,64.465 3.402,-11.056 -0.879,-18.326 1,-28.35 -8.644,16.418 -11.577,34.506 -22.262,50.463 -6.916,10.334 -9.96,15.66 -19.561,21.263 -2.553,-2.55 -2.268,-5.37 -2.268,-10.992 -2.173,16.067 11.039,35.368 15.874,51.818 7.091,24.097 -7.939,71.441 -43.088,39.689 C 94.13,248.617 90.634,231.385 83.926,215.732 77.12,199.855 58.974,157.896 57.275,131.249 54.896,93.96 66.913,70.012 86.192,52.15 c 14.092,-13.055 54.431,-28.065 84.198,-8.505 0.411,-4.86 -6.803,-18.709 -12.757,-30.618 18.712,-1.699 25.654,22.338 27.179,26.644 1.101,-7.84 6.84,-18.987 11.094,-35.998 11.058,13.606 6.805,34.869 5.102,43.373 22.966,-21.262 40.425,-12.798 45.927,-11.054 -14.456,5.954 -22.293,15.598 -28.964,19.613 17.909,-2.604 55.415,0.076 61.285,21.209 -10.207,-1.699 -22.553,-5.527 -28.622,-4.933 11.546,13.194 22.114,17.877 28.274,36.299 7.151,21.366 4.601,42.629 -5.031,62.297 -10.916,22.284 -26.977,38.386 -33.808,60.281 -5.385,17.266 12.537,16.722 29.546,16.722 -11.055,30.619 -47.922,22.826 -50.745,-6.799 -1.48,-15.485 3.078,-37.988 9.132,-51.764 -3.165,5.049 -7.433,21.427 -9.132,35.036 -13.608,-19.564 -12.992,-81.877 -13.608,-91.006 -0.991,-14.563 1.828,-32.317 0.85,-46.777 -6.919,2.832 -13.89,13.419 -17.861,24.664 z"
         id="path54832"
         inkscape:connector-curvature="0"
         style="fill-opacity:0;stroke:#1a1919;stroke-width:7.34700012;stroke-linecap:round;stroke-linejoin:round" />
      <path
         d="m 124.875,337.406 c 12.15,-1.62 13.208,16.89 4.133,17.662 -11.423,0.968 -15.277,-16.175 -4.133,-17.662"
         id="path54834"
         inkscape:connector-curvature="0"
         style="fill:#fffffe" />
      <path
         d="m 124.875,337.406 c 12.15,-1.62 13.208,16.89 4.133,17.662 -11.423,0.968 -15.277,-16.175 -4.133,-17.662 z"
         id="path54836"
         inkscape:connector-curvature="0"
         style="fill-opacity:0;stroke:#1a1919;stroke-width:7.34700012;stroke-linecap:round;stroke-linejoin:round" />
      <path
         d="m 122.445,386.006 c 12.15,-0.81 10.505,16.621 1.434,17.389 -11.425,0.969 -12.647,-16.643 -1.434,-17.389"
         id="path54838"
         inkscape:connector-curvature="0"
         style="fill:#fffffe" />
      <path
         d="m 122.445,386.006 c 12.15,-0.81 10.505,16.621 1.434,17.389 -11.425,0.969 -12.647,-16.643 -1.434,-17.389 z"
         id="path54840"
         inkscape:connector-curvature="0"
         style="fill-opacity:0;stroke:#1a1919;stroke-width:7.34700012;stroke-linecap:round;stroke-linejoin:round" />
      <path
         d="m 97.336,500.215 c 13.77,-1.619 11.314,15.274 2.243,16.046 -11.425,0.969 -11.235,-14.987 -2.243,-16.046"
         id="path54842"
         inkscape:connector-curvature="0"
         style="fill:#fffffe" />
      <path
         d="m 97.336,500.215 c 13.77,-1.619 11.314,15.274 2.243,16.046 -11.425,0.969 -11.235,-14.987 -2.243,-16.046 z"
         id="path54844"
         inkscape:connector-curvature="0"
         style="fill-opacity:0;stroke:#1a1919;stroke-width:7.34700012;stroke-linecap:round;stroke-linejoin:round" />
      <path
         d="m 111.105,442.706 c 12.96,-1.62 12.312,15.427 3.24,16.2 -11.423,0.967 -14.393,-14.808 -3.24,-16.2"
         id="path54846"
         inkscape:connector-curvature="0"
         style="fill:#fffffe" />
      <path
         d="m 111.105,442.706 c 12.96,-1.62 12.312,15.427 3.24,16.2 -11.423,0.967 -14.393,-14.808 -3.24,-16.2 z"
         id="path54848"
         inkscape:connector-curvature="0"
         style="fill-opacity:0;stroke:#1a1919;stroke-width:7.34700012;stroke-linecap:round;stroke-linejoin:round" />
      <g
         id="g56070"
         transform="translate(1219.477,244.62635)">
        <g
           transform="matrix(0.7156894,0,0,0.61606821,-588.84553,107.10871)"
           id="layer3" />
        <g
           id="g56410"
           transform="matrix(0.83017337,0.55750531,-0.55750531,0.83017337,-299.83728,63.988597)">
          <g
             id="layer2"
             transform="matrix(0.7156894,0,0,0.61606821,-588.84553,107.10871)">
            <path
               inkscape:connector-curvature="0"
               id="path4269"
               style="fill:#2e3436;stroke:#000000;stroke-width:11;stroke-linecap:round"
               d="m 179.06,3.5625 c -13.28,0.2397 -19.88,9.6905 -24.28,23.438 l -7.66,-2.844 1.22,-3.281 c 0.16,-0.41 0.07,-0.811 -0.18,-0.906 l -2.44,-0.907 c -0.26,-0.095 -0.57,0.153 -0.72,0.563 l -3.72,9.875 c -0.15,0.41 -0.03,0.811 0.22,0.906 l 2.41,0.906 c 0.25,0.096 0.59,-0.121 0.75,-0.531 l 1.22,-3.281 7.87,2.938 c -1.74,6.144 -3.12,13.009 -4.53,20.187 l -7.22,-2.687 1.22,-3.282 c 0.15,-0.409 0.07,-0.811 -0.19,-0.906 l -2.44,-0.906 c -0.25,-0.095 -0.59,0.153 -0.75,0.562 l -3.68,9.875 c -0.16,0.41 -0.07,0.811 0.18,0.907 l 2.44,0.906 c 0.26,0.095 0.6,-0.122 0.75,-0.532 l 1.22,-3.281 7.75,2.907 c -1.27,6.475 -2.6,13.117 -4.22,19.75 -0.13,0.519 -0.25,1.042 -0.37,1.562 l -7.66,-2.844 1.22,-3.281 c 0.15,-0.41 0.07,-0.811 -0.19,-0.906 l -2.44,-0.907 c -0.25,-0.095 -0.59,0.153 -0.75,0.563 l -3.68,9.875 c -0.16,0.41 -0.07,0.811 0.18,0.906 l 2.44,0.906 c 0.26,0.096 0.6,-0.121 0.75,-0.531 l 1.22,-3.281 8.03,3 c -1.67,6.562 -3.42,13.045 -5.22,19.375 l -6.84,-2.563 1.22,-3.281 c 0.15,-0.409 0.06,-0.811 -0.19,-0.906 l -2.44,-0.906 c -0.25,-0.095 -0.59,0.153 -0.75,0.562 l -3.69,9.909 c -0.15,0.41 -0.06,0.81 0.19,0.9 l 2.44,0.91 c 0.25,0.1 0.6,-0.15 0.75,-0.56 l 1.22,-3.284 7.09,2.654 c -2.29,7.98 -4.49,15.26 -6.59,22.19 l -7.66,-2.84 1.22,-3.28 c 0.15,-0.41 0.07,-0.82 -0.19,-0.91 l -2.43,-0.91 c -0.26,-0.09 -0.57,0.16 -0.72,0.56 l -3.72,9.88 c -0.15,0.41 -0.04,0.81 0.22,0.91 l 2.4,0.9 c 0.26,0.1 0.6,-0.12 0.75,-0.53 l 1.22,-3.28 7.88,2.94 c -2.37,7.77 -4.56,14.91 -6.03,20.18 l -6.82,-2.53 1.22,-3.28 c 0.16,-0.41 0.07,-0.81 -0.18,-0.9 l -2.44,-0.91 c -0.26,-0.1 -0.57,0.15 -0.72,0.56 l -3.72,9.88 c -0.15,0.41 -0.04,0.84 0.22,0.94 l 2.4,0.9 c 0.26,0.1 0.6,-0.15 0.76,-0.56 l 1.21,-3.28 7.13,2.65 c -1,3.84 -1.54,6.57 -1.41,7.75 1.23,10.65 18.57,24.47 18.57,24.47 l -0.1,447.1 c -2.82,10.08 -11.12,24.64 -35.4,12.71 -57.526,-28.24 -31.649,-89.05 -50.224,-90.24 -17.699,-1.14 -32.785,24.48 -30.25,57.09 3.925,50.46 36.622,121.95 37.282,146.91 1.085,40.19 -53.573,87.25 -51.938,166.06 1.482,72.35 92.21,122.36 171.53,120.66 81.29,-1.8 162.28,-53.28 161.97,-124.82 -0.32,-73.43 -61.89,-147.24 -61.72,-162.78 0.19,-16.67 19.01,-56.45 22.88,-87.06 2.67,-21.2 -6.42,-38.45 -14.97,-38.69 -16.27,1.96 -14.53,53.28 -49.94,55.31 -15.68,0.9 -25.81,-2.35 -36.84,-15.25 l -16,-487.69 c 0,-0.07 -1.73,-0.07 -4.22,-0.06 1.3,-3.33 4.04,-9.51 8.44,-15.53 7.91,-10.84 20.26,-13.12 19.74,-35.28 -0.51,-22.36 -12.83,-38.699 -14.37,-61.125 -2.19,-32.195 12.5,-66.393 -14.94,-67.062 -0.42,-0.011 -0.84,-0.0079 -1.25,-5e-4 z" />
            <path
               inkscape:connector-curvature="0"
               id="path4472"
               style="fill:#2e3436"
               d="m 121.17,116.06 c -0.25,-0.09 -0.59,0.15 -0.74,0.56 l -3.7,9.89 c -0.15,0.41 -0.06,0.81 0.19,0.91 l 2.43,0.91 c 0.26,0.09 0.59,-0.15 0.75,-0.56 l 1.22,-3.28 8.87,3.32 c 0.41,0.15 0.81,0.06 0.91,-0.2 l 0.91,-2.43 c 0.09,-0.25 -0.16,-0.56 -0.57,-0.71 l -8.87,-3.31 1.22,-3.28 c 0.16,-0.41 0.06,-0.81 -0.19,-0.91 l -2.43,-0.91 z" />
            <path
               inkscape:connector-curvature="0"
               id="path4474"
               style="fill:#2e3436"
               mask="url(#mask3265)"
               d="m 48.219,109.69 c -0.272,0 -0.5,0.34 -0.5,0.78 l 0,10.56 c 0,0.44 0.228,0.78 0.5,0.78 l 2.593,0 c 0.272,0 0.501,-0.34 0.5,-0.78 l 0,-3.5 9.469,0 c 0.438,0 0.781,-0.23 0.781,-0.5 l 0,-2.59 c 0,-0.27 -0.343,-0.47 -0.781,-0.47 l -9.469,0 0,-3.5 c 0,-0.44 -0.228,-0.78 -0.5,-0.78 l -2.593,0 z"
               transform="matrix(0.9367,0.35013,-0.35013,0.9367,114.41,-3.5653)" />
            <path
               inkscape:connector-curvature="0"
               id="path4476"
               style="fill:#2e3436"
               mask="url(#mask3265)"
               d="m 48.219,109.69 c -0.272,0 -0.5,0.34 -0.5,0.78 l 0,10.56 c 0,0.44 0.228,0.78 0.5,0.78 l 2.593,0 c 0.272,0 0.501,-0.34 0.5,-0.78 l 0,-3.5 9.469,0 c 0.438,0 0.781,-0.23 0.781,-0.5 l 0,-2.59 c 0,-0.27 -0.343,-0.47 -0.781,-0.47 l -9.469,0 0,-3.5 c 0,-0.44 -0.228,-0.78 -0.5,-0.78 l -2.593,0 z"
               transform="matrix(0.9367,0.35013,-0.35013,0.9367,114.41,-3.5653)" />
            <path
               inkscape:connector-curvature="0"
               id="path4448"
               style="fill:#2e3436"
               d="m 129.56,90.723 c -0.25,-0.095 -0.58,0.147 -0.74,0.556 l -3.7,9.891 c -0.15,0.41 -0.06,0.82 0.2,0.91 l 2.43,0.91 c 0.25,0.09 0.59,-0.15 0.74,-0.56 l 1.23,-3.277 8.86,3.317 c 0.41,0.15 0.82,0.06 0.91,-0.2 l 0.91,-2.426 c 0.09,-0.254 -0.16,-0.559 -0.57,-0.713 l -8.87,-3.315 1.23,-3.278 c 0.15,-0.41 0.06,-0.812 -0.2,-0.907 l -2.43,-0.908 z" />
            <path
               inkscape:connector-curvature="0"
               id="path4450"
               style="fill:#2e3436"
               mask="url(#mask3265)"
               d="m 48.219,109.69 c -0.272,0 -0.5,0.34 -0.5,0.78 l 0,10.56 c 0,0.44 0.228,0.78 0.5,0.78 l 2.593,0 c 0.272,0 0.501,-0.34 0.5,-0.78 l 0,-3.5 9.469,0 c 0.438,0 0.781,-0.23 0.781,-0.5 l 0,-2.59 c 0,-0.27 -0.343,-0.47 -0.781,-0.47 l -9.469,0 0,-3.5 c 0,-0.44 -0.228,-0.78 -0.5,-0.78 l -2.593,0 z"
               transform="matrix(0.9367,0.35013,-0.35013,0.9367,122.8,-28.905)" />
            <path
               inkscape:connector-curvature="0"
               id="path4452"
               style="fill:#2e3436"
               mask="url(#mask3265)"
               d="m 48.219,109.69 c -0.272,0 -0.5,0.34 -0.5,0.78 l 0,10.56 c 0,0.44 0.228,0.78 0.5,0.78 l 2.593,0 c 0.272,0 0.501,-0.34 0.5,-0.78 l 0,-3.5 9.469,0 c 0.438,0 0.781,-0.23 0.781,-0.5 l 0,-2.59 c 0,-0.27 -0.343,-0.47 -0.781,-0.47 l -9.469,0 0,-3.5 c 0,-0.44 -0.228,-0.78 -0.5,-0.78 l -2.593,0 z"
               transform="matrix(0.9367,0.35013,-0.35013,0.9367,122.8,-28.905)" />
            <path
               inkscape:connector-curvature="0"
               id="path4424"
               style="fill:#2e3436"
               d="m 134.85,67.56 c -0.25,-0.095 -0.59,0.147 -0.74,0.557 l -3.7,9.893 c -0.15,0.41 -0.06,0.812 0.19,0.907 l 2.43,0.908 c 0.26,0.095 0.59,-0.147 0.75,-0.556 l 1.22,-3.279 8.87,3.316 c 0.41,0.153 0.81,0.059 0.91,-0.195 l 0.91,-2.43 c 0.09,-0.254 -0.16,-0.559 -0.57,-0.712 l -8.87,-3.316 1.22,-3.278 c 0.16,-0.41 0.06,-0.812 -0.19,-0.907 l -2.43,-0.908 z" />
            <path
               inkscape:connector-curvature="0"
               id="path4426"
               style="fill:#2e3436"
               mask="url(#mask3265)"
               d="m 48.219,109.69 c -0.272,0 -0.5,0.34 -0.5,0.78 l 0,10.56 c 0,0.44 0.228,0.78 0.5,0.78 l 2.593,0 c 0.272,0 0.501,-0.34 0.5,-0.78 l 0,-3.5 9.469,0 c 0.438,0 0.781,-0.23 0.781,-0.5 l 0,-2.59 c 0,-0.27 -0.343,-0.47 -0.781,-0.47 l -9.469,0 0,-3.5 c 0,-0.44 -0.228,-0.78 -0.5,-0.78 l -2.593,0 z"
               transform="matrix(0.9367,0.35013,-0.35013,0.9367,128.09,-52.067)" />
            <path
               inkscape:connector-curvature="0"
               id="path4428"
               style="fill:#2e3436"
               mask="url(#mask3265)"
               d="m 48.219,109.69 c -0.272,0 -0.5,0.34 -0.5,0.78 l 0,10.56 c 0,0.44 0.228,0.78 0.5,0.78 l 2.593,0 c 0.272,0 0.501,-0.34 0.5,-0.78 l 0,-3.5 9.469,0 c 0.438,0 0.781,-0.23 0.781,-0.5 l 0,-2.59 c 0,-0.27 -0.343,-0.47 -0.781,-0.47 l -9.469,0 0,-3.5 c 0,-0.44 -0.228,-0.78 -0.5,-0.78 l -2.593,0 z"
               transform="matrix(0.9367,0.35013,-0.35013,0.9367,128.09,-52.067)" />
            <path
               inkscape:connector-curvature="0"
               id="path4400"
               style="fill:#2e3436"
               d="m 140.6,42.842 c -0.25,-0.095 -0.59,0.147 -0.74,0.557 l -3.7,9.894 c -0.15,0.41 -0.06,0.812 0.2,0.907 l 2.43,0.908 c 0.25,0.095 0.58,-0.147 0.74,-0.557 l 1.22,-3.278 8.87,3.315 c 0.41,0.153 0.81,0.06 0.91,-0.195 l 0.91,-2.429 c 0.09,-0.254 -0.16,-0.56 -0.57,-0.713 l -8.87,-3.315 1.23,-3.279 c 0.15,-0.409 0.05,-0.811 -0.2,-0.906 l -2.43,-0.909 z" />
            <path
               inkscape:connector-curvature="0"
               id="path4402"
               style="fill:#2e3436"
               mask="url(#mask3265)"
               d="m 48.219,109.69 c -0.272,0 -0.5,0.34 -0.5,0.78 l 0,10.56 c 0,0.44 0.228,0.78 0.5,0.78 l 2.593,0 c 0.272,0 0.501,-0.34 0.5,-0.78 l 0,-3.5 9.469,0 c 0.438,0 0.781,-0.23 0.781,-0.5 l 0,-2.59 c 0,-0.27 -0.343,-0.47 -0.781,-0.47 l -9.469,0 0,-3.5 c 0,-0.44 -0.228,-0.78 -0.5,-0.78 l -2.593,0 z"
               transform="matrix(0.9367,0.35013,-0.35013,0.9367,133.84,-76.785)" />
            <path
               inkscape:connector-curvature="0"
               id="path4404"
               style="fill:#2e3436"
               mask="url(#mask3265)"
               d="m 48.219,109.69 c -0.272,0 -0.5,0.34 -0.5,0.78 l 0,10.56 c 0,0.44 0.228,0.78 0.5,0.78 l 2.593,0 c 0.272,0 0.501,-0.34 0.5,-0.78 l 0,-3.5 9.469,0 c 0.438,0 0.781,-0.23 0.781,-0.5 l 0,-2.59 c 0,-0.27 -0.343,-0.47 -0.781,-0.47 l -9.469,0 0,-3.5 c 0,-0.44 -0.228,-0.78 -0.5,-0.78 l -2.593,0 z"
               transform="matrix(0.9367,0.35013,-0.35013,0.9367,133.84,-76.785)" />
          </g>
          <path
             inkscape:connector-curvature="0"
             id="path4323"
             style="fill:#fcaf3e;stroke:#000000;stroke-width:10.54195976;stroke-linecap:round;stroke-miterlimit:4;stroke-dasharray:none;stroke-opacity:1"
             d="m 172.36,622.34 -31.66,0 c 0,0 -1.78,38.01 -36.83,20.8 -57.521,-28.24 -31.653,-89.08 -50.227,-90.27 -17.699,-1.14 -32.785,24.51 -30.249,57.11 3.924,50.47 36.624,121.95 37.284,146.91 1.085,40.19 -53.573,87.25 -51.939,166.06 1.483,72.35 92.211,122.35 171.53,120.65 81.29,-1.8 162.29,-53.27 161.98,-124.81 -0.32,-73.43 -61.89,-147.24 -61.72,-162.78 0.18,-16.67 19,-56.45 22.86,-87.06 2.68,-21.2 -6.4,-38.45 -14.95,-38.69 -16.26,1.95 -14.53,53.28 -49.94,55.31 -27.5,1.58 -37.9,-9.62 -66.14,-63.23 z"
             transform="matrix(0.7156894,0,0,0.61606821,-588.84553,107.10871)" />
          <path
             sodipodi:nodetypes="ccsscccccccscccc"
             inkscape:connector-curvature="0"
             id="path4325"
             style="fill:#dcb98f;stroke:#000000;stroke-width:10.54195976;stroke-linecap:round;stroke-miterlimit:4;stroke-dasharray:none;stroke-opacity:1"
             d="m 139.38,183.33 -0.13,529.98 c 0,0.44 0.2,0.81 0.47,0.81 l 62.84,0 c 0.27,0 0.5,-0.37 0.5,-0.81 l -17.4,-530.69 c 0,-0.07 -1.73,-0.07 -4.22,-0.06 1.3,-3.33 4.04,-9.51 8.44,-15.53 7.91,-10.84 20.26,-13.12 19.74,-35.28 -0.51,-22.36 -12.83,-38.699 -14.37,-61.125 -2.19,-32.195 12.5,-66.393 -14.94,-67.062 -0.42,-0.011 -0.84,-0.0079 -1.25,-5e-4 -25.98,0.469 -26.42,36.186 -34.78,70.376 -9.66,39.522 -24.12,79.232 -23.47,84.902 1.23,10.65 18.57,24.49 18.57,24.49 z"
             transform="matrix(0.7156894,0,0,0.61606821,-588.84553,107.10871)" />
          <path
             sodipodi:nodetypes="cccccccccccc"
             inkscape:connector-curvature="0"
             id="path56405"
             d="m 105.92102,661.53888 25.8376,-12.42758 13.95815,-1.48249 0.60011,54.43884 51.41289,5.33275 -2.97631,-29.29048 3.89441,1.56025 9.18087,3.19965 31.21498,73.59172 -46.82247,51.19423 L 92.149711,751.1288 Z"
             style="fill:#fcaf3e;fill-opacity:1;fill-rule:evenodd;stroke:none;stroke-width:1.5059942px;stroke-linecap:butt;stroke-linejoin:miter;stroke-opacity:1"
             transform="matrix(0.7156894,0,0,0.61606821,-588.84553,107.10871)" />
          <g
             style="fill:#6c5353;stroke:#816d6d;stroke-opacity:1"
             id="layer5"
             transform="matrix(0.67196003,0,0,0.61614447,-583.95508,109.46431)">
            <path
               inkscape:connector-curvature="0"
               id="path8568"
               style="fill:#6c5353;stroke:#816d6d;stroke-width:2.0999999;stroke-linecap:round;stroke-opacity:1"
               d="M 149.98,894.47 143.79,152.38" />
            <use
               style="fill:#6c5353;stroke:#816d6d;stroke-opacity:1"
               id="use8602"
               xlink:href="#path8568"
               transform="matrix(1.9593,0,0,1.0278,-131.98,-25.528)"
               height="1052.3622"
               width="744.09448"
               y="0"
               x="0" />
            <use
               style="fill:#6c5353;stroke:#816d6d;stroke-opacity:1"
               id="use8606"
               xlink:href="#path8568"
               transform="matrix(2.2225,0,0,1.0638,-161.53,-57.803)"
               height="1052.3622"
               width="744.09448"
               y="0"
               x="0" />
            <use
               style="fill:#6c5353;stroke:#816d6d;stroke-opacity:1"
               id="use8608"
               xlink:href="#path8568"
               transform="matrix(2.5125,0,0,1.097,-195.11,-89.204)"
               height="1052.3622"
               width="744.09448"
               y="0"
               x="0" />
            <use
               style="fill:#6c5353;stroke:#816d6d;stroke-opacity:1"
               id="use8610"
               xlink:href="#path8568"
               transform="matrix(3.2885,0,0,1.1275,-299.4,-117.35)"
               height="1052.3622"
               width="744.09448"
               y="0"
               x="0" />
            <use
               style="fill:#6c5353;stroke:#816d6d;stroke-opacity:1"
               id="use8612"
               xlink:href="#path8568"
               transform="matrix(3.9331,0,0,1.1623,-386.06,-147.89)"
               height="1052.3622"
               width="744.09448"
               y="0"
               x="0" />
          </g>
          <rect
             ry="11.734632"
             y="641.80066"
             x="-499.3501"
             height="29.336582"
             width="72.704956"
             id="rect56403"
             style="opacity:0.87699998;fill:#443c3c;fill-opacity:1;fill-rule:evenodd;stroke:none;stroke-width:1;stroke-linecap:round;stroke-linejoin:round;stroke-miterlimit:10;stroke-dasharray:none;stroke-opacity:1" />
        </g>
      </g>
      <path
         d="m 214.333,583.713 c -1.4007,11.77242 29.714,6.195 24.126,21.742 -4.398,12.24 -28.378,34.391 -17.149,39.321 12.15,3.056 21.221,-13.65 23.933,-23.433 3.003,12.716 -29.049,35.38 -19.851,44.869 18.437,4.044 33.611,-26.341 33.169,-40.19 0.531,14.384 -16.074,41.351 -4.253,45.005 14.546,-1.952 15.801,-33.81 18.74,-46.448 0.513,6.854 -6.315,42.414 6.775,37.38 11.055,-4.252 8.941,-30.617 9.356,-39.123 7.70999,-11.16382 4.3265,-28.98269 -5.104,-42.525 -4.094,-16.209 -15.9334,-10.67583 -28.7514,-5.73683 -7.622,2.936 -42.42652,-4.70066 -42.66752,5.41234"
         id="path54604"
         inkscape:connector-curvature="0"
         style="fill:#f2b5a0"
         sodipodi:nodetypes="ccccccccccccc" />
      <path
         d="m 126.448,566.421 c 4.49,5.638 6.24,7.936 -0.566,17.292 -4.598,0.895 -6.005,-0.893 -10.492,-1.984 -7.654,11.909 -1.981,21.262 6.525,28.068 10.204,-5.955 12.757,-6.806 15.307,0 0.335,11.125 -6.701,19.205 -13.608,28.916 -9.639,13.552 -22.396,16.156 -34.587,5.955 C 81.636,647 73.26,639.75 68.932,627.582 68.096,625.228 67.41,622.69 66.914,620 64.361,606.193 63.503,585.627 62.945,577.476 61.94,562.823 61.092,565.975 85.623,564.438 c 11.747,-0.736 32.374,-8.636 40.825,1.983"
         id="path54662"
         inkscape:connector-curvature="0"
         style="fill:#f2b5a0" />
      <path
         d="m 126.448,566.421 c 4.49283,5.64083 11.25002,12.94602 -0.566,17.292 -4.598,0.895 -6.005,-0.893 -10.492,-1.984 -7.654,11.909 -1.981,21.262 6.525,28.068 10.204,-5.955 12.757,-6.806 15.307,0 0.335,11.125 -6.701,19.205 -13.608,28.916 -9.639,13.552 -22.396,16.156 -34.587,5.955 C 81.636,647 73.26,639.75 68.932,627.582 68.096,625.228 67.41,622.69 66.914,620 64.361,606.193 63.503,585.627 62.945,577.476 61.94,562.823 61.092,565.975 85.623,564.438 c 11.747,-0.736 32.374,-8.636 40.825,1.983 z"
         id="path54664"
         inkscape:connector-curvature="0"
         style="fill-opacity:0;stroke:#1a1919;stroke-width:7.37900019;stroke-linecap:round;stroke-linejoin:round"
         sodipodi:nodetypes="cccccsccccsc" />
      <path
         style="fill:#fffffe;fill-opacity:1;fill-rule:evenodd;stroke:none;stroke-width:1px;stroke-linecap:butt;stroke-linejoin:miter;stroke-opacity:1"
         d="m 77.401302,515.38135 -40.666398,18.42888 -7.125834,8.10871 19.903191,51.84659 22.851813,-18.6746 25.800434,-15.23455 -15.357401,-40.29782 z"
         id="path56766"
         inkscape:connector-curvature="0"
         sodipodi:nodetypes="cccccccc" />
      <path
         d="m 78.705,272.606 c -12.961,35.64 -26.61,101.563 -27.54,120.689 -0.996,20.628 -0.348,42.017 3.24,62.371 6.803,38.637 18.14,77.596 34.02,109.35"
         id="path54706"
         inkscape:connector-curvature="0"
         style="fill-opacity:0;stroke:#dd4043;stroke-width:7.37900019;stroke-linecap:round;stroke-linejoin:round" />
      <path
         d="m 64.936,278.276 c -7.135,10.141 -15.514,28.109 -21.061,50.22 -6.419,25.578 -9.593,55.488 -11.339,65.61 -4.05,23.49 -4.398,49.306 -0.81,69.66 6.802,38.636 23,77.596 38.879,109.349"
         id="path54704"
         inkscape:connector-curvature="0"
         style="fill-opacity:0;stroke:#dd4043;stroke-width:7.37900019;stroke-linecap:round;stroke-linejoin:round" />
      <path
         d="m 45.935,293.407 c -16.64,21.319 -23.246,72.779 -25.55,91.79 -3.24,26.729 -6.562,56.452 -3.24,75.33 6.806,38.636 27.053,92.175 42.93,123.93"
         id="path54708"
         inkscape:connector-curvature="0"
         style="fill-opacity:0;stroke:#dd4043;stroke-width:7.37900019;stroke-linecap:round;stroke-linejoin:round" />
      <path
         d="m 45.495,586.076 c 12.581,-18.331 31.591,-29.971 48.6,-33.211"
         id="path54676"
         inkscape:connector-curvature="0"
         style="fill-opacity:0;stroke:#dd4043;stroke-width:7.37900019;stroke-linecap:round;stroke-linejoin:round" />
      <path
         d="m 41.445,572.307 c 12.581,-18.334 29.16,-27.541 47.79,-30.781"
         id="path54678"
         inkscape:connector-curvature="0"
         style="fill-opacity:0;stroke:#dd4043;stroke-width:7.37900019;stroke-linecap:round;stroke-linejoin:round" />
      <path
         d="m 35.775,548.006 c 12.581,-18.333 29.065,-14.514 48.6,-22.68"
         id="path54674"
         inkscape:connector-curvature="0"
         style="fill-opacity:0;stroke:#dd4043;stroke-width:7.37900019;stroke-linecap:round;stroke-linejoin:round" />
      <path
         d="M 86.758,269.594 C 65.79,275.966 40.559,284.741 29.777,303.614 5.96,345.287 6.181,406.759 4.546,427.221 c -1.867,23.322 -1.136,37.422 6.806,58.972 8.663,23.512 31.182,109.426 43.089,116.231 2.264,-24.379 31.554,-33.358 46.134,-39.838 C 79.034,518.36 73.716,492.995 65.784,463.507 61.243,434.024 61.851,392.834 68.049,356.913"
         id="path54710"
         inkscape:connector-curvature="0"
         style="fill-opacity:0;stroke:#1a1919;stroke-width:7.37900019;stroke-linecap:round;stroke-linejoin:round" />
      <path
         d="m 64.647,455.575 c -8.274,-6.332 -36.326,-11.859 -37.275,4.392 6.261,0.265 13.307,-0.744 19.129,1.275"
         id="path54712"
         inkscape:connector-curvature="0"
         style="fill-opacity:0;stroke:#1a1919;stroke-width:7.37900019;stroke-linecap:round;stroke-linejoin:round" />
      <path
         d="m 100.082,605.545 c 2.239,10.728 5.869,14.697 16.159,18.994 4.764,1.986 10.147,-0.918 16.446,-3.405"
         id="path54666"
         inkscape:connector-curvature="0"
         style="fill-opacity:0;stroke:#1a1919;stroke-width:7.37900019;stroke-linecap:round;stroke-linejoin:round" />
      <path
         d="m 91.577,618.302 c 1.31,7.698 4.847,14.58 13.893,19.843 4.949,2.879 14.46,1.42 18.713,-1.133"
         id="path54668"
         inkscape:connector-curvature="0"
         style="fill-opacity:0;stroke:#1a1919;stroke-width:7.37900019;stroke-linecap:round;stroke-linejoin:round" />
      <path
         d="m 79.955,625.954 c 1.594,6.391 6.803,17.009 14.459,22.113"
         id="path54670"
         inkscape:connector-curvature="0"
         style="fill-opacity:0;stroke:#1a1919;stroke-width:7.37900019;stroke-linecap:round;stroke-linejoin:round" />
      <path
         d="m 214.14668,585.76257 c 12.201,6.369 29.90032,4.14543 24.31232,19.69243 -4.398,12.24 -28.378,34.391 -17.149,39.321 12.15,3.056 21.221,-13.65 23.933,-23.433 3.003,12.716 -29.049,35.38 -19.851,44.869 18.437,4.044 33.611,-26.341 33.169,-40.19 0.531,14.384 -16.074,41.351 -4.253,45.005 14.546,-1.952 15.801,-33.81 18.74,-46.448 0.513,6.854 -6.315,42.414 6.775,37.38 11.055,-4.252 8.941,-30.617 9.356,-39.123 0.47276,-9.70846 3.58204,-18.85833 2.46005,-24.29424 -0.64987,-3.14858 -6.86953,-15.4822 -7.56405,-18.23076 -4.094,-16.209 -4.5676,-13.84335 -17.3856,-8.90435 -38.57485,10.74168 -47.99998,4.67406 -51.34923,5.06234 -2.58481,0.29966 -5.12834,6.31999 -1.19349,9.29358 z"
         id="path54606"
         inkscape:connector-curvature="0"
         style="fill-opacity:0;stroke:#1a1919;stroke-width:7.37900019;stroke-linecap:round;stroke-linejoin:round"
         sodipodi:nodetypes="ccccccccccsccsc" />
    </g>
  </g>
</svg>
